<?xml version="1.0" standalone="no"?>
<!DOCTYPE svg PUBLIC "-//W3C//DTD SVG 20010904//EN"
 "http://www.w3.org/TR/2001/REC-SVG-20010904/DTD/svg10.dtd">
<svg version="1.0" xmlns="http://www.w3.org/2000/svg"
 width="184.000000pt" height="184.000000pt" viewBox="0 0 184.000000 184.000000"
 preserveAspectRatio="xMidYMid meet">
<metadata>
Created by potrace 1.14, written by Peter Selinger 2001-2017
</metadata>
<g transform="translate(0.000000,184.000000) scale(0.100000,-0.100000)"
fill="#000000" stroke="none">
<path d="M358 1369 c-77 -12 -154 -54 -216 -116 -93 -93 -134 -205 -131 -358
4 -251 156 -428 378 -442 142 -10 256 43 330 150 37 55 47 87 30 98 -24 15
-34 10 -48 -23 -21 -46 -78 -106 -125 -131 -61 -31 -158 -33 -222 -3 -125 58
-194 193 -194 380 1 212 87 363 225 392 133 28 226 -44 281 -218 15 -49 21
-58 41 -58 l24 0 -2 158 -1 158 -23 2 c-15 1 -30 -7 -39 -20 l-15 -21 -58 26
c-64 28 -158 39 -235 26z"/>
<path d="M920 1334 c0 -17 8 -23 34 -28 19 -4 45 -15 59 -26 l25 -20 0 -351
c0 -332 -1 -352 -19 -370 -16 -16 -59 -25 -91 -20 -5 0 -8 -10 -8 -24 l0 -25
185 0 185 0 0 25 c0 14 -3 24 -7 23 -5 -1 -25 1 -46 5 -60 13 -65 30 -65 215
0 89 3 162 6 163 21 4 389 4 400 1 9 -3 12 -47 12 -173 0 -156 -2 -171 -20
-189 -17 -17 -59 -26 -92 -21 -5 0 -8 -10 -8 -24 l0 -25 185 0 c177 0 185 1
185 20 0 14 -11 22 -42 31 -77 22 -73 0 -74 387 -2 395 -4 386 71 398 40 5 46
9 43 28 -3 20 -7 21 -185 22 l-183 1 0 -22 c0 -18 7 -24 36 -30 20 -3 47 -17
60 -30 23 -23 24 -30 24 -170 l0 -145 -209 0 -210 0 1 150 c1 173 5 185 73
196 38 5 45 10 45 29 l0 23 -185 -1 c-184 -1 -185 -1 -185 -23z"/>
</g>
</svg>
